<svg version="1" xmlns="http://www.w3.org/2000/svg" width="949.333" height="949.333" viewBox="0 0 712.000000 712.000000"><path d="M203.9 324.9C136.1 460.5 80.5 571.7 80.5 572c0 .3-.9 2.1-2 4-2.4 4.6-13.8 27.4-14 28-.1.3-3.4 7-7.4 14.9s-7 14.6-6.7 14.9c.7.6 335.4.7 336 .1.3-.4 29.6-59.2 138.3-277.9 26.1-52.5 67.5-135.6 92-184.5 24.5-49 44.9-90 45.3-91.1l.8-2.1H327.3L203.9 324.9zm315.8-89.2c-.7 1.6-7.9 16.1-16.1 32.4l-14.9 29.6h-32.4c-17.9 0-32.8.4-33.3.9-.8.8-59.4 117.9-80.9 161.6-5.1 10.4-9.5 18.9-9.9 18.9-3.1.6-73.2.2-73.2-.3 0-.4 17.2-35.3 38.2-77.5 21-42.2 38.2-77 38.3-77.3 0-.3.9-2.1 2-4 3.2-6 10.5-21.1 10.5-21.8 0-.4-14.6-.6-32.5-.6-17.9.1-32.5-.1-32.5-.4 0-.3 7.1-14.8 15.8-32.3l15.7-31.8 103.2-.1h103.2l-1.2 2.7z"/></svg>