<?xml version="1.0" standalone="no"?>
<!DOCTYPE svg PUBLIC "-//W3C//DTD SVG 20010904//EN"
 "http://www.w3.org/TR/2001/REC-SVG-20010904/DTD/svg10.dtd">
<svg version="1.0" xmlns="http://www.w3.org/2000/svg"
 width="712.000000pt" height="712.000000pt" viewBox="0 0 712.000000 712.000000"
 preserveAspectRatio="xMidYMid meet">
<metadata>
Created by potrace 1.11, written by Peter Selinger 2001-2013
</metadata>
<g transform="translate(0.000000,712.000000) scale(0.100000,-0.100000)"
fill="#000000" stroke="none">
<path d="M2039 3871 c-678 -1356 -1234 -2468 -1234 -2471 0 -3 -9 -21 -20 -40
-24 -46 -138 -274 -140 -280 -1 -3 -34 -70 -74 -149 -40 -79 -70 -146 -67
-149 7 -6 3354 -7 3360 -1 3 4 296 592 1383 2779 261 525 675 1356 920 1845
245 490 449 900 453 911 l8 21 -1678 0 -1677 0 -1234 -2466z m3158 892 c-7
-16 -79 -161 -161 -324 l-149 -296 -324 0 c-179 0 -328 -4 -333 -9 -8 -8 -594
-1179 -809 -1616 -51 -104 -95 -189 -99 -189 -31 -6 -732 -2 -732 3 0 4 172
353 382 775 210 422 382 770 383 773 0 3 9 21 20 40 32 60 105 211 105 218 0
4 -146 6 -325 6 -179 -1 -325 1 -325 4 0 3 71 148 158 323 l157 318 1032 1
1032 0 -12 -27z"/>
</g>
</svg>
